<!--?xml version="1.0" standalone="no"?-->
              <svg id="sw-js-blob-svg" viewBox="0 0 100 100" xmlns="http://www.w3.org/2000/svg" version="1.1">
                    <defs> 
                        <linearGradient id="sw-gradient" x1="0" x2="1" y1="1" y2="0">
                            <stop id="stop1" stop-color="rgba(248, 117, 55, 1)" offset="0%"></stop>
                            <stop id="stop2" stop-color="rgba(251, 168, 31, 1)" offset="100%"></stop>
                        </linearGradient>
                    </defs>
                <path fill="url(#sw-gradient)" d="M22.3,-29.3C27.9,-22,30.5,-13.9,31.4,-6C32.3,2,31.5,9.9,28.1,16.7C24.7,23.6,18.8,29.5,11.6,32.4C4.3,35.3,-4.2,35.3,-12.9,33.1C-21.6,31,-30.4,26.8,-34.6,19.8C-38.9,12.8,-38.6,3,-37.1,-6.7C-35.5,-16.4,-32.7,-26,-26.3,-33.1C-19.9,-40.3,-10,-44.9,-0.8,-44C8.4,-43.1,16.8,-36.6,22.3,-29.3Z" width="100%" height="100%" transform="translate(50 50)" stroke-width="0" style="transition: 0.3s;"></path>
              </svg>